<?xml version="1.0" encoding="utf-8"?>
<!-- Generator: Adobe Illustrator 16.0.0, SVG Export Plug-In . SVG Version: 6.00 Build 0)  -->
<!DOCTYPE svg PUBLIC "-//W3C//DTD SVG 1.1//EN" "http://www.w3.org/Graphics/SVG/1.1/DTD/svg11.dtd">
<svg version="1.1" id="Layer_1" xmlns="http://www.w3.org/2000/svg" xmlns:xlink="http://www.w3.org/1999/xlink" x="0px" y="0px"
	 width="34.016px" height="34.016px" viewBox="0 0 34.016 34.016" enable-background="new 0 0 34.016 34.016" xml:space="preserve">
<g>
	<path fill="#F6F6F6" d="M17.51,17.064c0.095-0.029,0.189-0.06,0.286-0.087c-0.184-0.413-0.381-0.827-0.589-1.232
		c-3.739,1.119-7.328,1.038-7.456,1.033c-0.002,0.076-0.006,0.151-0.006,0.229c0,1.866,0.704,3.567,1.858,4.854
		c0-0.001-0.002-0.003-0.002-0.003S13.591,18.331,17.51,17.064z"/>
	<path fill="#F6F6F6" d="M15.268,9.956c-0.008,0.003-0.016,0.004-0.021,0.006C15.259,9.959,15.267,9.957,15.268,9.956
		C15.267,9.957,15.268,9.957,15.268,9.956z"/>
	<path fill="#F6F6F6" d="M21.804,11.558c-1.28-1.127-2.958-1.812-4.796-1.812c-0.59,0-1.163,0.07-1.712,0.205
		c0.107,0.144,1.473,1.956,2.714,4.235C20.751,13.16,21.786,11.585,21.804,11.558z"/>
	<path fill="#F6F6F6" d="M12.544,22.733l0.001-0.002c-0.054-0.042-0.111-0.081-0.164-0.125
		C12.477,22.684,12.544,22.733,12.544,22.733z"/>
	<path fill="#F6F6F6" d="M16.605,14.624c-1.257-2.234-2.6-4.057-2.695-4.187c-2.025,0.957-3.537,2.822-4.01,5.071
		C10.092,15.514,13.119,15.551,16.605,14.624z"/>
	<path fill="#F6F6F6" d="M17.008,0C7.613,0,0,7.615,0,17.007C0,26.4,7.613,34.016,17.008,34.016c9.394,0,17.008-7.615,17.008-17.008
		S26.401,0,17.008,0z M25.338,18.721c-0.111,0.546-0.279,1.084-0.496,1.598c-0.213,0.506-0.477,0.991-0.784,1.445
		c-0.304,0.45-0.653,0.873-1.038,1.258c-0.385,0.386-0.808,0.733-1.258,1.037c-0.454,0.309-0.94,0.571-1.444,0.784
		c-0.514,0.218-1.052,0.384-1.598,0.496c-0.56,0.116-1.136,0.174-1.712,0.174c-0.577,0-1.153-0.058-1.713-0.174
		c-0.546-0.112-1.084-0.278-1.6-0.496c-0.504-0.213-0.988-0.477-1.443-0.784c-0.45-0.304-0.874-0.651-1.258-1.037
		c-0.386-0.385-0.733-0.808-1.037-1.258c-0.309-0.454-0.571-0.939-0.784-1.445c-0.217-0.513-0.384-1.052-0.496-1.598
		c-0.115-0.56-0.173-1.136-0.173-1.713c0-0.576,0.058-1.153,0.173-1.711c0.112-0.546,0.279-1.084,0.496-1.599
		c0.213-0.506,0.477-0.99,0.784-1.444c0.304-0.45,0.651-0.874,1.037-1.258c0.385-0.387,0.808-0.734,1.258-1.038
		c0.455-0.31,0.939-0.571,1.443-0.785c0.516-0.216,1.054-0.385,1.6-0.495c0.561-0.115,1.137-0.174,1.713-0.174
		s1.152,0.059,1.712,0.174c0.546,0.11,1.084,0.279,1.598,0.495c0.504,0.213,0.99,0.477,1.444,0.785
		c0.45,0.304,0.874,0.651,1.258,1.038c0.384,0.384,0.734,0.808,1.038,1.258c0.309,0.454,0.571,0.938,0.784,1.444
		c0.217,0.514,0.385,1.052,0.496,1.599c0.115,0.559,0.173,1.135,0.173,1.711S25.453,18.161,25.338,18.721z"/>
	<path fill="#F6F6F6" d="M18.57,15.269c0.169,0.348,0.332,0.698,0.483,1.056c0.054,0.125,0.105,0.25,0.157,0.375
		c2.495-0.314,4.953,0.215,5.058,0.236c-0.017-1.723-0.633-3.303-1.65-4.541C22.602,12.415,21.438,14.098,18.57,15.269z"/>
	<path fill="#F6F6F6" d="M18.243,18.198c-4.287,1.492-5.687,4.506-5.698,4.532c1.23,0.962,2.778,1.54,4.463,1.54
		c1.005,0,1.964-0.205,2.835-0.575c-0.107-0.635-0.529-2.857-1.551-5.515C18.275,18.186,18.259,18.19,18.243,18.198z"/>
	<path fill="#F6F6F6" d="M19.652,17.844c0.953,2.618,1.342,4.749,1.414,5.188c1.631-1.103,2.789-2.849,3.113-4.87
		C24.028,18.114,21.997,17.469,19.652,17.844z"/>
</g>
</svg>
