<?xml version="1.0" encoding="utf-8"?>
<!-- Generator: Adobe Illustrator 16.0.0, SVG Export Plug-In . SVG Version: 6.00 Build 0)  -->
<!DOCTYPE svg PUBLIC "-//W3C//DTD SVG 1.1//EN" "http://www.w3.org/Graphics/SVG/1.1/DTD/svg11.dtd">
<svg version="1.1" id="Layer_1" xmlns="http://www.w3.org/2000/svg" xmlns:xlink="http://www.w3.org/1999/xlink" x="0px" y="0px"
	 width="34.016px" height="34.016px" viewBox="0 0 34.016 34.016" enable-background="new 0 0 34.016 34.016" xml:space="preserve">
<g>
	<path fill="#F6F6F6" d="M17.008,0C7.613,0,0,7.615,0,17.007C0,26.4,7.613,34.016,17.008,34.016c9.395,0,17.008-7.616,17.008-17.009
		C34.016,7.615,26.402,0,17.008,0z M25.514,15.262v6.963c0,1.812-1.475,3.287-3.287,3.287H11.793c-1.812,0-3.287-1.474-3.287-3.287
		v-6.963V11.79c0-1.812,1.475-3.287,3.287-3.287h10.434c1.812,0,3.287,1.474,3.287,3.287V15.262z"/>
	<path fill="#F6F6F6" d="M17.01,20.001c1.65,0,2.994-1.343,2.994-2.993c0-0.652-0.211-1.253-0.566-1.746
		c-0.545-0.754-1.428-1.248-2.428-1.248c-0.998,0-1.883,0.494-2.426,1.248c-0.355,0.492-0.566,1.094-0.566,1.746
		C14.018,18.658,15.359,20.001,17.01,20.001z"/>
	<polygon fill="#F6F6F6" points="23.547,13.346 23.547,10.837 23.547,10.463 23.17,10.464 20.662,10.472 20.672,13.355 	"/>
	<path fill="#F6F6F6" d="M21.66,17.008c0,2.564-2.086,4.651-4.65,4.651s-4.65-2.087-4.65-4.651c0-0.617,0.123-1.206,0.346-1.746
		h-2.539v6.963c0,0.899,0.729,1.629,1.629,1.629h10.434c0.9,0,1.631-0.729,1.631-1.629v-6.963h-2.54
		C21.537,15.802,21.66,16.391,21.66,17.008z"/>
</g>
</svg>
