<?xml version="1.0" encoding="utf-8"?>
<!-- Generator: Adobe Illustrator 16.0.0, SVG Export Plug-In . SVG Version: 6.00 Build 0)  -->
<!DOCTYPE svg PUBLIC "-//W3C//DTD SVG 1.1//EN" "http://www.w3.org/Graphics/SVG/1.1/DTD/svg11.dtd">
<svg version="1.1" id="Layer_1" xmlns="http://www.w3.org/2000/svg" xmlns:xlink="http://www.w3.org/1999/xlink" x="0px" y="0px"
	 width="397.101px" height="482.324px" viewBox="0 0 397.101 482.324" enable-background="new 0 0 397.101 482.324"
	 xml:space="preserve">
<g>
	<path fill="#FCFCFC" d="M110.396,293.672v-27.121L379.623,0.137H321.99L110.396,209.539V64.624H69.873v380.001v36.348v1
		l83.712-0.194c48.473,0,95.104-15.535,133.09-39.979l-23.389-28.956c-31.803,19.998-69.435,31.588-109.746,31.588l-43.146,0.1
		v-93.791l82.122-81.421l154.447,213.007h50.135L197.565,207.25L110.396,293.672z"/>
	<path fill="#FCFCFC" d="M351.988,379.604c28.391-39.711,45.111-88.268,45.111-140.646c0-60.354-22.035-116.924-62.311-160.686
		l-26.572,26.295c33.314,36.713,51.535,83.973,51.535,134.391c0,39.778-12.158,77.844-31.877,109.341L351.988,379.604z"/>
	<path fill="#FCFCFC" d="M234.521,52.933l28.464-28.173C229.761,8.568,192.788,0,154.377,0L0,0.355v481.776l37.347-0.087v-37.347
		v-29.651V37.616l117.072-0.271C182.453,37.347,209.564,42.717,234.521,52.933z"/>
</g>
</svg>
