<?xml version="1.0" encoding="utf-8"?>
<!-- Generator: Adobe Illustrator 16.0.0, SVG Export Plug-In . SVG Version: 6.00 Build 0)  -->
<!DOCTYPE svg PUBLIC "-//W3C//DTD SVG 1.1//EN" "http://www.w3.org/Graphics/SVG/1.1/DTD/svg11.dtd">
<svg version="1.1" id="Layer_1" xmlns="http://www.w3.org/2000/svg" xmlns:xlink="http://www.w3.org/1999/xlink" x="0px" y="0px"
	 width="31.492px" height="31.484px" viewBox="0 0 31.492 31.484" enable-background="new 0 0 31.492 31.484" xml:space="preserve">
<g>
	<g>
		<g>
			<g>
				<path fill="#444444" d="M29.03,11.031l-8.483-8.486l0.707-0.707c1.133-1.133,2.64-1.758,4.242-1.758
					c1.602,0,3.108,0.625,4.241,1.758c2.339,2.34,2.339,6.146,0,8.486L29.03,11.031z M23.462,2.634l5.479,5.479
					c0.902-1.533,0.697-3.546-0.617-4.861C27.052,1.981,24.966,1.74,23.462,2.634z"/>
			</g>
			<g>
				
					<rect x="16.687" y="8.088" transform="matrix(-0.5151 -0.8571 0.8571 -0.5151 26.3188 33.0635)" fill="#444444" width="11.649" height="2"/>
			</g>
		</g>
		<g>
			<polygon fill="#444444" points="0.084,31.485 3.063,20.319 4.996,20.835 2.904,28.675 10.767,26.604 11.276,28.538 			"/>
		</g>
	</g>
	<g>
		<g>
			<polygon fill="#444444" points="12.902,27.085 10.546,21.044 4.505,18.683 16.919,6.156 18.341,7.563 8.069,17.929 
				12.091,19.501 13.656,23.515 21.996,15.222 23.406,16.64 			"/>
		</g>
	</g>
</g>
<g>
	<g>
		<polygon fill="#444444" points="5.248,12.85 0,6.257 6.257,0 12.846,5.155 11.613,6.729 6.419,2.666 2.677,6.409 6.812,11.604 		
			"/>
	</g>
	<g>
		
			<rect x="6.403" y="6.931" transform="matrix(-0.7876 -0.6161 0.6161 -0.7876 9.9153 19.2792)" fill="#444444" width="3.755" height="2"/>
	</g>
	<g>
		<path fill="#444444" d="M27.41,30.231l-0.707-0.707c-1.135-1.134-3.109-1.134-4.244,0l-0.707,0.707l-3.715-3.713l1.414-1.414
			l2.373,2.37c1.664-1.102,3.85-1.102,5.516,0l0.142-0.142c-1.101-1.665-1.101-3.85,0-5.515l-2.435-2.434l1.414-1.414l3.776,3.777
			l-0.707,0.707c-1.17,1.17-1.17,3.072,0,4.242l0.708,0.708L27.41,30.231z"/>
	</g>
	<g>
		
			<rect x="27.677" y="28.171" transform="matrix(-0.7069 -0.7073 0.7073 -0.7069 29.1724 70.4288)" fill="#444444" width="3" height="2"/>
	</g>
</g>
</svg>
