<?xml version="1.0" encoding="utf-8"?>
<!-- Generator: Adobe Illustrator 16.0.0, SVG Export Plug-In . SVG Version: 6.00 Build 0)  -->
<!DOCTYPE svg PUBLIC "-//W3C//DTD SVG 1.1//EN" "http://www.w3.org/Graphics/SVG/1.1/DTD/svg11.dtd">
<svg version="1.1" id="Layer_1" xmlns="http://www.w3.org/2000/svg" xmlns:xlink="http://www.w3.org/1999/xlink" x="0px" y="0px"
	 width="31.742px" height="31.707px" viewBox="0 0 31.742 31.707" enable-background="new 0 0 31.742 31.707" xml:space="preserve">
<g>
	<g>
		<g>
			<path fill="none" stroke="#444444" stroke-width="2" stroke-miterlimit="10" d="M1.878,4.414l0.707,0.708
				c0.781,0.78,2.049,0.779,2.828,0c0.783-0.782,0.781-2.048,0-2.829L4.706,1.586L1.878,4.414z"/>
		</g>
		<line fill="none" stroke="#444444" stroke-width="2" stroke-miterlimit="10" x1="11.741" y1="11.225" x2="5.413" y2="5.122"/>
		<line fill="none" stroke="#444444" stroke-width="2" stroke-miterlimit="10" x1="26.741" y1="26.225" x2="21.275" y2="20.76"/>
		<path fill="none" stroke="#444444" stroke-width="2" stroke-miterlimit="10" d="M23.495,17.314l6.071,6.071
			c1.562,1.562,1.568,4.103,0.007,5.663c-1.562,1.562-4.091,1.567-5.65,0.008l-6.084-6.084"/>
	</g>
	<g>
		<g>
			<g>
				<g>
					<path fill="none" stroke="#444444" stroke-width="2" stroke-miterlimit="10" d="M29.586,10.606l-1.828,1.828
						c-2.344,2.345-6.141,2.344-8.484,0c-2.344-2.343-2.346-6.141,0-8.485l1.828-1.828"/>
				</g>
				<g>
					<path fill="none" stroke="#444444" stroke-width="2" stroke-miterlimit="10" d="M31,10.606l-2.828-2.828l-1.414,1.414
						c-1.172,1.173-3.072,1.171-4.242,0c-1.172-1.171-1.172-3.07,0-4.243l1.414-1.414l-2.828-2.828"/>
				</g>
			</g>
			<line fill="none" stroke="#444444" stroke-width="2" stroke-miterlimit="10" x1="4.031" y1="26.676" x2="6.031" y2="26.676"/>
		</g>
		<line fill="none" stroke="#444444" stroke-width="2" stroke-miterlimit="10" x1="17.833" y1="17.223" x2="13.866" y2="13.3"/>
		<path fill="none" stroke="#444444" stroke-width="2" stroke-miterlimit="10" d="M12.518,16.363L2.172,23.879
			c-1.562,1.562-1.562,4.096,0,5.656c1.562,1.562,4.096,1.562,5.656,0l7.518-10.344"/>
	</g>
</g>
</svg>
